<mxfile host="app.diagrams.net" agent="Mozilla/5.0 (Windows NT 10.0; Win64; x64) AppleWebKit/537.36 (KHTML, like Gecko) Chrome/129.0.0.0 Safari/537.36" version="24.7.17">
  <diagram id="MOAHc8nKqfZWCXeAH-Ug" name="CLASS">
    <mxGraphModel dx="1034" dy="454" grid="1" gridSize="10" guides="1" tooltips="1" connect="1" arrows="1" fold="1" page="1" pageScale="1" pageWidth="850" pageHeight="1100" math="0" shadow="0">
      <root>
        <mxCell id="0" />
        <mxCell id="1" parent="0" />
        <mxCell id="02aQeutYwfjW0XpqFpdG-1" value="Pemasok" style="swimlane;fontStyle=1;align=center;verticalAlign=top;childLayout=stackLayout;horizontal=1;startSize=25.515153364701703;horizontalStack=0;resizeParent=1;resizeParentMax=0;resizeLast=0;collapsible=0;marginBottom=0;fillColor=#76608a;fontColor=#ffffff;strokeColor=#432D57;" parent="1" vertex="1">
          <mxGeometry x="66" y="20" width="181" height="142.5151533647017" as="geometry" />
        </mxCell>
        <mxCell id="02aQeutYwfjW0XpqFpdG-2" value="+int ID_Pemasok" style="text;strokeColor=none;fillColor=none;align=left;verticalAlign=top;spacingLeft=4;spacingRight=4;overflow=hidden;rotatable=0;points=[[0,0.5],[1,0.5]];portConstraint=eastwest;" parent="02aQeutYwfjW0XpqFpdG-1" vertex="1">
          <mxGeometry y="25.515153364701703" width="181" height="26" as="geometry" />
        </mxCell>
        <mxCell id="02aQeutYwfjW0XpqFpdG-3" value="+String Nama_Pemasok" style="text;strokeColor=none;fillColor=none;align=left;verticalAlign=top;spacingLeft=4;spacingRight=4;overflow=hidden;rotatable=0;points=[[0,0.5],[1,0.5]];portConstraint=eastwest;" parent="02aQeutYwfjW0XpqFpdG-1" vertex="1">
          <mxGeometry y="51.5151533647017" width="181" height="26" as="geometry" />
        </mxCell>
        <mxCell id="02aQeutYwfjW0XpqFpdG-4" value="+String Alamat" style="text;strokeColor=none;fillColor=none;align=left;verticalAlign=top;spacingLeft=4;spacingRight=4;overflow=hidden;rotatable=0;points=[[0,0.5],[1,0.5]];portConstraint=eastwest;" parent="02aQeutYwfjW0XpqFpdG-1" vertex="1">
          <mxGeometry y="77.5151533647017" width="181" height="26" as="geometry" />
        </mxCell>
        <mxCell id="02aQeutYwfjW0XpqFpdG-5" value="+String No_Telp" style="text;strokeColor=none;fillColor=none;align=left;verticalAlign=top;spacingLeft=4;spacingRight=4;overflow=hidden;rotatable=0;points=[[0,0.5],[1,0.5]];portConstraint=eastwest;" parent="02aQeutYwfjW0XpqFpdG-1" vertex="1">
          <mxGeometry y="103.5151533647017" width="181" height="26" as="geometry" />
        </mxCell>
        <mxCell id="02aQeutYwfjW0XpqFpdG-6" style="line;strokeWidth=1;fillColor=none;align=left;verticalAlign=middle;spacingTop=-1;spacingLeft=3;spacingRight=3;rotatable=0;labelPosition=right;points=[];portConstraint=eastwest;strokeColor=inherit;" parent="02aQeutYwfjW0XpqFpdG-1" vertex="1">
          <mxGeometry y="129.5151533647017" width="181" height="13" as="geometry" />
        </mxCell>
        <mxCell id="02aQeutYwfjW0XpqFpdG-7" value="Barang" style="swimlane;fontStyle=1;align=center;verticalAlign=top;childLayout=stackLayout;horizontal=1;startSize=24.755556233723958;horizontalStack=0;resizeParent=1;resizeParentMax=0;resizeLast=0;collapsible=0;marginBottom=0;fillColor=#76608a;fontColor=#ffffff;strokeColor=#432D57;" parent="1" vertex="1">
          <mxGeometry x="72" y="237" width="167" height="186.75555623372395" as="geometry" />
        </mxCell>
        <mxCell id="02aQeutYwfjW0XpqFpdG-8" value="+int ID_Barang" style="text;strokeColor=none;fillColor=none;align=left;verticalAlign=top;spacingLeft=4;spacingRight=4;overflow=hidden;rotatable=0;points=[[0,0.5],[1,0.5]];portConstraint=eastwest;" parent="02aQeutYwfjW0XpqFpdG-7" vertex="1">
          <mxGeometry y="24.755556233723958" width="167" height="25" as="geometry" />
        </mxCell>
        <mxCell id="02aQeutYwfjW0XpqFpdG-9" value="+String Nama_Barang" style="text;strokeColor=none;fillColor=none;align=left;verticalAlign=top;spacingLeft=4;spacingRight=4;overflow=hidden;rotatable=0;points=[[0,0.5],[1,0.5]];portConstraint=eastwest;" parent="02aQeutYwfjW0XpqFpdG-7" vertex="1">
          <mxGeometry y="49.75555623372396" width="167" height="25" as="geometry" />
        </mxCell>
        <mxCell id="02aQeutYwfjW0XpqFpdG-10" value="+String Satuan" style="text;strokeColor=none;fillColor=none;align=left;verticalAlign=top;spacingLeft=4;spacingRight=4;overflow=hidden;rotatable=0;points=[[0,0.5],[1,0.5]];portConstraint=eastwest;" parent="02aQeutYwfjW0XpqFpdG-7" vertex="1">
          <mxGeometry y="74.75555623372395" width="167" height="25" as="geometry" />
        </mxCell>
        <mxCell id="02aQeutYwfjW0XpqFpdG-11" value="+int Stok" style="text;strokeColor=none;fillColor=none;align=left;verticalAlign=top;spacingLeft=4;spacingRight=4;overflow=hidden;rotatable=0;points=[[0,0.5],[1,0.5]];portConstraint=eastwest;" parent="02aQeutYwfjW0XpqFpdG-7" vertex="1">
          <mxGeometry y="99.75555623372395" width="167" height="25" as="geometry" />
        </mxCell>
        <mxCell id="02aQeutYwfjW0XpqFpdG-12" value="+String Jenis" style="text;strokeColor=none;fillColor=none;align=left;verticalAlign=top;spacingLeft=4;spacingRight=4;overflow=hidden;rotatable=0;points=[[0,0.5],[1,0.5]];portConstraint=eastwest;" parent="02aQeutYwfjW0XpqFpdG-7" vertex="1">
          <mxGeometry y="124.75555623372395" width="167" height="25" as="geometry" />
        </mxCell>
        <mxCell id="02aQeutYwfjW0XpqFpdG-13" value="+float Harga" style="text;strokeColor=none;fillColor=none;align=left;verticalAlign=top;spacingLeft=4;spacingRight=4;overflow=hidden;rotatable=0;points=[[0,0.5],[1,0.5]];portConstraint=eastwest;" parent="02aQeutYwfjW0XpqFpdG-7" vertex="1">
          <mxGeometry y="149.75555623372395" width="167" height="25" as="geometry" />
        </mxCell>
        <mxCell id="02aQeutYwfjW0XpqFpdG-14" style="line;strokeWidth=1;fillColor=none;align=left;verticalAlign=middle;spacingTop=-1;spacingLeft=3;spacingRight=3;rotatable=0;labelPosition=right;points=[];portConstraint=eastwest;strokeColor=inherit;" parent="02aQeutYwfjW0XpqFpdG-7" vertex="1">
          <mxGeometry y="174.75555623372395" width="167" height="12" as="geometry" />
        </mxCell>
        <mxCell id="02aQeutYwfjW0XpqFpdG-15" value="Pegawai" style="swimlane;fontStyle=1;align=center;verticalAlign=top;childLayout=stackLayout;horizontal=1;startSize=24.755556233723958;horizontalStack=0;resizeParent=1;resizeParentMax=0;resizeLast=0;collapsible=0;marginBottom=0;fillColor=#76608a;fontColor=#ffffff;strokeColor=#432D57;" parent="1" vertex="1">
          <mxGeometry x="290" y="237" width="171" height="186.75555623372395" as="geometry" />
        </mxCell>
        <mxCell id="02aQeutYwfjW0XpqFpdG-16" value="+int ID_Pegawai" style="text;strokeColor=none;fillColor=none;align=left;verticalAlign=top;spacingLeft=4;spacingRight=4;overflow=hidden;rotatable=0;points=[[0,0.5],[1,0.5]];portConstraint=eastwest;" parent="02aQeutYwfjW0XpqFpdG-15" vertex="1">
          <mxGeometry y="24.755556233723958" width="171" height="25" as="geometry" />
        </mxCell>
        <mxCell id="02aQeutYwfjW0XpqFpdG-17" value="+String Nama" style="text;strokeColor=none;fillColor=none;align=left;verticalAlign=top;spacingLeft=4;spacingRight=4;overflow=hidden;rotatable=0;points=[[0,0.5],[1,0.5]];portConstraint=eastwest;" parent="02aQeutYwfjW0XpqFpdG-15" vertex="1">
          <mxGeometry y="49.75555623372396" width="171" height="25" as="geometry" />
        </mxCell>
        <mxCell id="02aQeutYwfjW0XpqFpdG-18" value="+String Alamat" style="text;strokeColor=none;fillColor=none;align=left;verticalAlign=top;spacingLeft=4;spacingRight=4;overflow=hidden;rotatable=0;points=[[0,0.5],[1,0.5]];portConstraint=eastwest;" parent="02aQeutYwfjW0XpqFpdG-15" vertex="1">
          <mxGeometry y="74.75555623372395" width="171" height="25" as="geometry" />
        </mxCell>
        <mxCell id="02aQeutYwfjW0XpqFpdG-19" value="+String Jenis_Kelamin" style="text;strokeColor=none;fillColor=none;align=left;verticalAlign=top;spacingLeft=4;spacingRight=4;overflow=hidden;rotatable=0;points=[[0,0.5],[1,0.5]];portConstraint=eastwest;" parent="02aQeutYwfjW0XpqFpdG-15" vertex="1">
          <mxGeometry y="99.75555623372395" width="171" height="25" as="geometry" />
        </mxCell>
        <mxCell id="02aQeutYwfjW0XpqFpdG-20" value="+String Kota" style="text;strokeColor=none;fillColor=none;align=left;verticalAlign=top;spacingLeft=4;spacingRight=4;overflow=hidden;rotatable=0;points=[[0,0.5],[1,0.5]];portConstraint=eastwest;" parent="02aQeutYwfjW0XpqFpdG-15" vertex="1">
          <mxGeometry y="124.75555623372395" width="171" height="25" as="geometry" />
        </mxCell>
        <mxCell id="02aQeutYwfjW0XpqFpdG-21" value="+String No_Telp" style="text;strokeColor=none;fillColor=none;align=left;verticalAlign=top;spacingLeft=4;spacingRight=4;overflow=hidden;rotatable=0;points=[[0,0.5],[1,0.5]];portConstraint=eastwest;" parent="02aQeutYwfjW0XpqFpdG-15" vertex="1">
          <mxGeometry y="149.75555623372395" width="171" height="25" as="geometry" />
        </mxCell>
        <mxCell id="02aQeutYwfjW0XpqFpdG-22" style="line;strokeWidth=1;fillColor=none;align=left;verticalAlign=middle;spacingTop=-1;spacingLeft=3;spacingRight=3;rotatable=0;labelPosition=right;points=[];portConstraint=eastwest;strokeColor=inherit;" parent="02aQeutYwfjW0XpqFpdG-15" vertex="1">
          <mxGeometry y="174.75555623372395" width="171" height="12" as="geometry" />
        </mxCell>
        <mxCell id="02aQeutYwfjW0XpqFpdG-23" value="BarangMasuk" style="swimlane;fontStyle=1;align=center;verticalAlign=top;childLayout=stackLayout;horizontal=1;startSize=25.076923076923077;horizontalStack=0;resizeParent=1;resizeParentMax=0;resizeLast=0;collapsible=0;marginBottom=0;fillColor=#76608a;fontColor=#ffffff;strokeColor=#432D57;" parent="1" vertex="1">
          <mxGeometry x="20" y="499" width="178" height="163.0769230769231" as="geometry" />
        </mxCell>
        <mxCell id="02aQeutYwfjW0XpqFpdG-24" value="+String Kode_Transaksi" style="text;strokeColor=none;fillColor=none;align=left;verticalAlign=top;spacingLeft=4;spacingRight=4;overflow=hidden;rotatable=0;points=[[0,0.5],[1,0.5]];portConstraint=eastwest;" parent="02aQeutYwfjW0XpqFpdG-23" vertex="1">
          <mxGeometry y="25.076923076923077" width="178" height="25" as="geometry" />
        </mxCell>
        <mxCell id="02aQeutYwfjW0XpqFpdG-25" value="+int ID_Barang" style="text;strokeColor=none;fillColor=none;align=left;verticalAlign=top;spacingLeft=4;spacingRight=4;overflow=hidden;rotatable=0;points=[[0,0.5],[1,0.5]];portConstraint=eastwest;" parent="02aQeutYwfjW0XpqFpdG-23" vertex="1">
          <mxGeometry y="50.07692307692308" width="178" height="25" as="geometry" />
        </mxCell>
        <mxCell id="02aQeutYwfjW0XpqFpdG-26" value="+String Satuan_Barang" style="text;strokeColor=none;fillColor=none;align=left;verticalAlign=top;spacingLeft=4;spacingRight=4;overflow=hidden;rotatable=0;points=[[0,0.5],[1,0.5]];portConstraint=eastwest;" parent="02aQeutYwfjW0XpqFpdG-23" vertex="1">
          <mxGeometry y="75.07692307692308" width="178" height="25" as="geometry" />
        </mxCell>
        <mxCell id="02aQeutYwfjW0XpqFpdG-27" value="+int Stok_Barang" style="text;strokeColor=none;fillColor=none;align=left;verticalAlign=top;spacingLeft=4;spacingRight=4;overflow=hidden;rotatable=0;points=[[0,0.5],[1,0.5]];portConstraint=eastwest;" parent="02aQeutYwfjW0XpqFpdG-23" vertex="1">
          <mxGeometry y="100.07692307692308" width="178" height="25" as="geometry" />
        </mxCell>
        <mxCell id="02aQeutYwfjW0XpqFpdG-28" value="+Date Tgl_Terima" style="text;strokeColor=none;fillColor=none;align=left;verticalAlign=top;spacingLeft=4;spacingRight=4;overflow=hidden;rotatable=0;points=[[0,0.5],[1,0.5]];portConstraint=eastwest;" parent="02aQeutYwfjW0XpqFpdG-23" vertex="1">
          <mxGeometry y="125.07692307692308" width="178" height="25" as="geometry" />
        </mxCell>
        <mxCell id="02aQeutYwfjW0XpqFpdG-29" style="line;strokeWidth=1;fillColor=none;align=left;verticalAlign=middle;spacingTop=-1;spacingLeft=3;spacingRight=3;rotatable=0;labelPosition=right;points=[];portConstraint=eastwest;strokeColor=inherit;" parent="02aQeutYwfjW0XpqFpdG-23" vertex="1">
          <mxGeometry y="150.0769230769231" width="178" height="13" as="geometry" />
        </mxCell>
        <mxCell id="02aQeutYwfjW0XpqFpdG-30" value="BarangKeluar" style="swimlane;fontStyle=1;align=center;verticalAlign=top;childLayout=stackLayout;horizontal=1;startSize=25.515153364701703;horizontalStack=0;resizeParent=1;resizeParentMax=0;resizeLast=0;collapsible=0;marginBottom=0;fillColor=#76608a;fontColor=#ffffff;strokeColor=#432D57;" parent="1" vertex="1">
          <mxGeometry x="348" y="511" width="149" height="142.5151533647017" as="geometry" />
        </mxCell>
        <mxCell id="02aQeutYwfjW0XpqFpdG-31" value="+int ID_Transaksi" style="text;strokeColor=none;fillColor=none;align=left;verticalAlign=top;spacingLeft=4;spacingRight=4;overflow=hidden;rotatable=0;points=[[0,0.5],[1,0.5]];portConstraint=eastwest;" parent="02aQeutYwfjW0XpqFpdG-30" vertex="1">
          <mxGeometry y="25.515153364701703" width="149" height="26" as="geometry" />
        </mxCell>
        <mxCell id="02aQeutYwfjW0XpqFpdG-32" value="+int ID_Barang" style="text;strokeColor=none;fillColor=none;align=left;verticalAlign=top;spacingLeft=4;spacingRight=4;overflow=hidden;rotatable=0;points=[[0,0.5],[1,0.5]];portConstraint=eastwest;" parent="02aQeutYwfjW0XpqFpdG-30" vertex="1">
          <mxGeometry y="51.5151533647017" width="149" height="26" as="geometry" />
        </mxCell>
        <mxCell id="02aQeutYwfjW0XpqFpdG-33" value="+int Jumlah_Ambil" style="text;strokeColor=none;fillColor=none;align=left;verticalAlign=top;spacingLeft=4;spacingRight=4;overflow=hidden;rotatable=0;points=[[0,0.5],[1,0.5]];portConstraint=eastwest;" parent="02aQeutYwfjW0XpqFpdG-30" vertex="1">
          <mxGeometry y="77.5151533647017" width="149" height="26" as="geometry" />
        </mxCell>
        <mxCell id="02aQeutYwfjW0XpqFpdG-34" value="+Date Tgl_Ambil" style="text;strokeColor=none;fillColor=none;align=left;verticalAlign=top;spacingLeft=4;spacingRight=4;overflow=hidden;rotatable=0;points=[[0,0.5],[1,0.5]];portConstraint=eastwest;" parent="02aQeutYwfjW0XpqFpdG-30" vertex="1">
          <mxGeometry y="103.5151533647017" width="149" height="26" as="geometry" />
        </mxCell>
        <mxCell id="02aQeutYwfjW0XpqFpdG-35" style="line;strokeWidth=1;fillColor=none;align=left;verticalAlign=middle;spacingTop=-1;spacingLeft=3;spacingRight=3;rotatable=0;labelPosition=right;points=[];portConstraint=eastwest;strokeColor=inherit;" parent="02aQeutYwfjW0XpqFpdG-30" vertex="1">
          <mxGeometry y="129.5151533647017" width="149" height="13" as="geometry" />
        </mxCell>
        <mxCell id="02aQeutYwfjW0XpqFpdG-36" value="supplies &gt;" style="curved=1;startArrow=none;endArrow=none;exitX=0.5;exitY=1;entryX=0.5;entryY=0;rounded=0;" parent="1" source="02aQeutYwfjW0XpqFpdG-1" target="02aQeutYwfjW0XpqFpdG-7" edge="1">
          <mxGeometry relative="1" as="geometry">
            <Array as="points" />
          </mxGeometry>
        </mxCell>
        <mxCell id="02aQeutYwfjW0XpqFpdG-37" value="1" style="edgeLabel;resizable=0;labelBackgroundColor=none;fontSize=12;align=right;verticalAlign=top;" parent="02aQeutYwfjW0XpqFpdG-36" vertex="1">
          <mxGeometry x="-1" relative="1" as="geometry" />
        </mxCell>
        <mxCell id="02aQeutYwfjW0XpqFpdG-38" value="0..*" style="edgeLabel;resizable=0;labelBackgroundColor=none;fontSize=12;align=left;verticalAlign=bottom;" parent="02aQeutYwfjW0XpqFpdG-36" vertex="1">
          <mxGeometry x="1" relative="1" as="geometry" />
        </mxCell>
        <mxCell id="02aQeutYwfjW0XpqFpdG-39" value="records &gt;" style="curved=1;startArrow=none;endArrow=none;exitX=0.09;exitY=1;entryX=0.31;entryY=0;rounded=0;" parent="1" source="02aQeutYwfjW0XpqFpdG-7" target="02aQeutYwfjW0XpqFpdG-23" edge="1">
          <mxGeometry relative="1" as="geometry">
            <Array as="points">
              <mxPoint x="62" y="465" />
            </Array>
          </mxGeometry>
        </mxCell>
        <mxCell id="02aQeutYwfjW0XpqFpdG-40" value="1" style="edgeLabel;resizable=0;labelBackgroundColor=none;fontSize=12;align=right;verticalAlign=top;" parent="02aQeutYwfjW0XpqFpdG-39" vertex="1">
          <mxGeometry x="-1" relative="1" as="geometry" />
        </mxCell>
        <mxCell id="02aQeutYwfjW0XpqFpdG-41" value="0..*" style="edgeLabel;resizable=0;labelBackgroundColor=none;fontSize=12;align=left;verticalAlign=bottom;" parent="02aQeutYwfjW0XpqFpdG-39" vertex="1">
          <mxGeometry x="1" relative="1" as="geometry" />
        </mxCell>
        <mxCell id="02aQeutYwfjW0XpqFpdG-42" value="records &gt;" style="curved=1;startArrow=none;endArrow=none;exitX=1;exitY=0.86;entryX=0.04;entryY=0;rounded=0;" parent="1" source="02aQeutYwfjW0XpqFpdG-7" target="02aQeutYwfjW0XpqFpdG-30" edge="1">
          <mxGeometry relative="1" as="geometry">
            <Array as="points">
              <mxPoint x="313" y="465" />
            </Array>
          </mxGeometry>
        </mxCell>
        <mxCell id="02aQeutYwfjW0XpqFpdG-43" value="1" style="edgeLabel;resizable=0;labelBackgroundColor=none;fontSize=12;align=left;verticalAlign=top;" parent="02aQeutYwfjW0XpqFpdG-42" vertex="1">
          <mxGeometry x="-1" relative="1" as="geometry" />
        </mxCell>
        <mxCell id="02aQeutYwfjW0XpqFpdG-44" value="0..*" style="edgeLabel;resizable=0;labelBackgroundColor=none;fontSize=12;align=right;verticalAlign=bottom;" parent="02aQeutYwfjW0XpqFpdG-42" vertex="1">
          <mxGeometry x="1" relative="1" as="geometry" />
        </mxCell>
        <mxCell id="02aQeutYwfjW0XpqFpdG-45" value="processes &gt;" style="curved=1;startArrow=none;endArrow=none;exitX=0;exitY=0.87;entryX=0.94;entryY=0;rounded=0;" parent="1" source="02aQeutYwfjW0XpqFpdG-15" target="02aQeutYwfjW0XpqFpdG-23" edge="1">
          <mxGeometry relative="1" as="geometry">
            <Array as="points">
              <mxPoint x="219" y="465" />
            </Array>
          </mxGeometry>
        </mxCell>
        <mxCell id="02aQeutYwfjW0XpqFpdG-46" value="1" style="edgeLabel;resizable=0;labelBackgroundColor=none;fontSize=12;align=right;verticalAlign=top;" parent="02aQeutYwfjW0XpqFpdG-45" vertex="1">
          <mxGeometry x="-1" relative="1" as="geometry" />
        </mxCell>
        <mxCell id="02aQeutYwfjW0XpqFpdG-47" value="0..*" style="edgeLabel;resizable=0;labelBackgroundColor=none;fontSize=12;align=left;verticalAlign=bottom;" parent="02aQeutYwfjW0XpqFpdG-45" vertex="1">
          <mxGeometry x="1" relative="1" as="geometry" />
        </mxCell>
        <mxCell id="02aQeutYwfjW0XpqFpdG-48" value="processes &gt;" style="curved=1;startArrow=none;endArrow=none;exitX=0.91;exitY=1;entryX=0.69;entryY=0;rounded=0;" parent="1" source="02aQeutYwfjW0XpqFpdG-15" target="02aQeutYwfjW0XpqFpdG-30" edge="1">
          <mxGeometry relative="1" as="geometry">
            <Array as="points">
              <mxPoint x="469" y="465" />
            </Array>
          </mxGeometry>
        </mxCell>
        <mxCell id="02aQeutYwfjW0XpqFpdG-49" value="1" style="edgeLabel;resizable=0;labelBackgroundColor=none;fontSize=12;align=right;verticalAlign=top;" parent="02aQeutYwfjW0XpqFpdG-48" vertex="1">
          <mxGeometry x="-1" relative="1" as="geometry" />
        </mxCell>
        <mxCell id="02aQeutYwfjW0XpqFpdG-50" value="0..*" style="edgeLabel;resizable=0;labelBackgroundColor=none;fontSize=12;align=left;verticalAlign=bottom;" parent="02aQeutYwfjW0XpqFpdG-48" vertex="1">
          <mxGeometry x="1" relative="1" as="geometry" />
        </mxCell>
        <mxCell id="ejs4Kd_utWx7LORqPMC9-1" value="&lt;b&gt;Class Diagram&lt;/b&gt;" style="whiteSpace=wrap;html=1;fillColor=#647687;fontColor=#ffffff;strokeColor=#314354;" parent="1" vertex="1">
          <mxGeometry x="290" y="30" width="120" height="60" as="geometry" />
        </mxCell>
      </root>
    </mxGraphModel>
  </diagram>
</mxfile>
